<svg width="22" height="16" viewBox="0 0 22 16" fill="none" xmlns="http://www.w3.org/2000/svg">
<path d="M1.20133 0H20.7987C21.4611 0.00374357 22 0.570894 22 1.26345V14.7365C22 15.431 21.4557 16 20.7915 16H1.20133C0.54069 15.9963 0 15.4291 0 14.7365V1.26345C0 0.570894 0.5389 0.00374357 1.20133 0Z" fill="#FF9933"/>
<path d="M0 5.33276H22V10.6673H0V5.33276Z" fill="white"/>
<path d="M0 10.6672H22V14.7365C22 15.4309 21.4557 15.9999 20.7915 15.9999H1.20133C0.54069 15.9962 0 15.4291 0 14.7365V10.6672Z" fill="#128807"/>
<path d="M13.041 8.00004C13.041 6.82082 12.1279 5.86621 11 5.86621C9.87207 5.86621 8.95898 6.82082 8.95898 8.00004C8.95898 9.17739 9.87207 10.1339 11 10.1339C12.1279 10.1339 13.041 9.17927 13.041 8.00004Z" fill="#000088"/>
<path d="M12.785 7.99996C12.785 6.9686 11.9865 6.13379 11 6.13379C10.0135 6.13379 9.21503 6.9686 9.21503 7.99996C9.21503 9.03131 10.0135 9.86612 11 9.86612C11.9865 9.86612 12.785 9.03131 12.785 7.99996Z" fill="white"/>
<path d="M11.3563 8.00009C11.3563 7.79419 11.197 7.62573 11 7.62573C10.8031 7.62573 10.6437 7.79232 10.6437 8.00009C10.6437 8.20599 10.8031 8.37257 11 8.37257C11.197 8.37257 11.3563 8.20599 11.3563 8.00009Z" fill="#000088"/>
<path d="M12.8584 8.25641C12.8656 8.20587 12.8298 8.15908 12.7814 8.15159C12.7331 8.1441 12.6883 8.18154 12.6812 8.23208C12.674 8.28261 12.7098 8.32941 12.7581 8.3369C12.8083 8.34251 12.853 8.30695 12.8584 8.25641Z" fill="#000088"/>
<path d="M11 9.86616L11.0609 8.74684L11 8.21338L10.9391 8.74684L11 9.86616Z" fill="#000088"/>
<path d="M12.7313 8.75062C12.751 8.70383 12.7277 8.64767 12.6829 8.62896C12.6382 8.60837 12.5845 8.6327 12.5666 8.67949C12.5469 8.72629 12.5701 8.78244 12.6149 8.80116C12.6615 8.81988 12.7134 8.79742 12.7313 8.75062Z" fill="black"/>
<path d="M10.5381 9.80244L10.8747 8.7374L10.9481 8.20581L10.7565 8.70558L10.5381 9.80244Z" fill="black"/>
<path d="M12.4878 9.19419C12.5182 9.15301 12.5111 9.09499 12.4717 9.06317C12.4323 9.03135 12.3768 9.03883 12.3464 9.08001C12.3159 9.12119 12.3231 9.17922 12.3625 9.21104C12.4019 9.24286 12.4574 9.2335 12.4878 9.19419Z" fill="black"/>
<path d="M10.1066 9.61722L10.6957 8.67945L10.898 8.1853L10.59 8.61394L10.1066 9.61722Z" fill="black"/>
<path d="M12.1405 9.55552C12.1798 9.5237 12.187 9.46567 12.1566 9.42449C12.1261 9.38332 12.0706 9.37583 12.0312 9.40765C11.9919 9.43947 11.9847 9.49749 12.0151 9.53867C12.0456 9.57798 12.1029 9.58734 12.1405 9.55552Z" fill="black"/>
<path d="M9.73779 9.3196L10.5381 8.57276L10.855 8.15161L10.4521 8.48292L9.73779 9.3196Z" fill="black"/>
<path d="M11.7179 9.8119C11.7627 9.79131 11.7859 9.73703 11.7662 9.69024C11.7466 9.64344 11.6946 9.61911 11.6499 9.6397C11.6051 9.65842 11.5818 9.71457 11.6015 9.76136C11.6194 9.80816 11.6714 9.83062 11.7179 9.8119Z" fill="black"/>
<path d="M9.45312 8.93402L10.4128 8.42864L10.8228 8.10669L10.3501 8.3182L9.45312 8.93402Z" fill="black"/>
<path d="M11.2453 9.94297C11.2936 9.93548 11.3276 9.88869 11.3223 9.83815C11.3151 9.78761 11.2704 9.75205 11.222 9.75766C11.1737 9.76515 11.1397 9.81194 11.145 9.86248C11.1504 9.91489 11.1952 9.95046 11.2453 9.94297Z" fill="black"/>
<path d="M9.27588 8.48292L10.3268 8.25456L10.8031 8.05615L10.2946 8.13102L9.27588 8.48292Z" fill="black"/>
<path d="M10.7547 9.94285C10.8031 9.95034 10.8478 9.9129 10.855 9.86237C10.8622 9.81183 10.8263 9.76503 10.778 9.75755C10.7297 9.75006 10.6849 9.7875 10.6777 9.83803C10.6724 9.89044 10.7064 9.93724 10.7547 9.94285Z" fill="black"/>
<path d="M9.21503 7.99992L10.2857 8.06356L10.7959 7.99992L10.2857 7.93628L9.21503 7.99992Z" fill="black"/>
<path d="M10.2821 9.8119C10.3268 9.83249 10.3805 9.80816 10.3984 9.76136C10.4163 9.71457 10.3949 9.65842 10.3501 9.6397C10.3053 9.61911 10.2516 9.64344 10.2337 9.69024C10.2158 9.73703 10.2373 9.79131 10.2821 9.8119Z" fill="black"/>
<path d="M9.27588 7.51709L10.2946 7.86899L10.8031 7.94573L10.3268 7.74545L9.27588 7.51709Z" fill="black"/>
<path d="M9.85776 9.55552C9.89715 9.58734 9.95265 9.57985 9.98308 9.53867C10.0135 9.49749 10.0064 9.43947 9.96697 9.40765C9.92758 9.37583 9.87208 9.38332 9.84164 9.42449C9.813 9.46567 9.82016 9.5237 9.85776 9.55552Z" fill="black"/>
<path d="M9.45312 7.06592L10.3501 7.68173L10.8228 7.89325L10.4128 7.5713L9.45312 7.06592Z" fill="black"/>
<path d="M9.51221 9.19419C9.54265 9.23537 9.59815 9.24286 9.63754 9.21104C9.67692 9.17922 9.68408 9.12119 9.65365 9.08001C9.62321 9.03883 9.56771 9.03135 9.52832 9.06317C9.49073 9.09311 9.48177 9.15301 9.51221 9.19419Z" fill="black"/>
<path d="M9.73779 6.68042L10.4521 7.51711L10.855 7.85028L10.5381 7.42726L9.73779 6.68042Z" fill="black"/>
<path d="M9.26693 8.75062C9.28662 8.79742 9.33854 8.82175 9.3833 8.80116C9.42806 8.78057 9.45134 8.72629 9.43164 8.67949C9.41195 8.6327 9.36003 8.60837 9.31527 8.62896C9.27051 8.64767 9.24902 8.70196 9.26693 8.75062Z" fill="black"/>
<path d="M10.1066 6.38281L10.59 7.38609L10.898 7.81473L10.6957 7.32245L10.1066 6.38281Z" fill="black"/>
<path d="M9.14158 8.25653C9.14874 8.30706 9.1935 8.34263 9.24184 8.33701C9.29018 8.32953 9.32419 8.28273 9.31882 8.23219C9.31166 8.18165 9.2669 8.14609 9.21856 8.15171C9.16843 8.15732 9.13441 8.20412 9.14158 8.25653Z" fill="black"/>
<path d="M10.5381 6.19751L10.7565 7.29625L10.9481 7.79414L10.8747 7.26255L10.5381 6.19751Z" fill="black"/>
<path d="M9.1416 7.74367C9.13444 7.79421 9.17025 7.841 9.21859 7.84849C9.26693 7.85597 9.31168 7.81854 9.31885 7.768C9.32601 7.71746 9.2902 7.67067 9.24186 7.66318C9.19173 7.65757 9.14697 7.69313 9.1416 7.74367Z" fill="black"/>
<path d="M11 6.13379L10.9391 7.25311L11 7.78657L11.0609 7.25311L11 6.13379Z" fill="black"/>
<path d="M9.26871 7.24952C9.24902 7.29631 9.27229 7.35246 9.31705 7.37118C9.36181 7.3899 9.41552 7.36744 9.43342 7.32064C9.45312 7.27385 9.42984 7.21769 9.38508 7.19898C9.33854 7.18026 9.28661 7.20272 9.26871 7.24952Z" fill="black"/>
<path d="M11.4619 6.19751L11.1253 7.26255L11.0519 7.79414L11.2435 7.29625L11.4619 6.19751Z" fill="black"/>
<path d="M9.5122 6.80755C9.48176 6.84873 9.48892 6.90676 9.52831 6.93858C9.5677 6.9704 9.6232 6.96291 9.65364 6.92173C9.68407 6.88055 9.67691 6.82253 9.63752 6.79071C9.59814 6.75888 9.54264 6.76637 9.5122 6.80755Z" fill="black"/>
<path d="M11.8934 6.38281L11.3044 7.32245L11.1021 7.81473L11.41 7.38609L11.8934 6.38281Z" fill="black"/>
<path d="M9.85955 6.44445C9.82016 6.47627 9.813 6.5343 9.84344 6.57548C9.87387 6.61666 9.92937 6.62414 9.96876 6.59232C10.0082 6.5605 10.0153 6.50248 9.98488 6.4613C9.95444 6.42012 9.89715 6.4145 9.85955 6.44445Z" fill="black"/>
<path d="M12.2622 6.68042L11.4619 7.42726L11.145 7.85028L11.5479 7.51711L12.2622 6.68042Z" fill="black"/>
<path d="M10.2821 6.19001C10.2373 6.2106 10.2158 6.26488 10.2337 6.31167C10.2534 6.35847 10.3053 6.3828 10.3501 6.36221C10.3949 6.34162 10.4181 6.28734 10.3984 6.24054C10.3805 6.19188 10.3286 6.16942 10.2821 6.19001Z" fill="black"/>
<path d="M12.5469 7.06592L11.5872 7.5713L11.1772 7.89325L11.6499 7.68173L12.5469 7.06592Z" fill="black"/>
<path d="M10.7547 6.05711C10.7064 6.06459 10.6724 6.11139 10.6777 6.16193C10.6849 6.21247 10.7297 6.24803 10.778 6.24241C10.8263 6.23493 10.8622 6.18813 10.855 6.13759C10.8496 6.08706 10.8049 6.04962 10.7547 6.05711Z" fill="black"/>
<path d="M12.7241 7.51709L11.6732 7.74545L11.197 7.94573L11.7054 7.86899L12.7241 7.51709Z" fill="black"/>
<path d="M11.2453 6.05711C11.1969 6.04962 11.1522 6.08706 11.145 6.13759C11.1379 6.18813 11.1737 6.23493 11.222 6.24241C11.2703 6.2499 11.3151 6.21247 11.3223 6.16193C11.3276 6.11139 11.2936 6.06272 11.2453 6.05711Z" fill="black"/>
<path d="M12.785 7.99992L11.7144 7.93628L11.2041 7.99992L11.7144 8.06356L12.785 7.99992Z" fill="black"/>
<path d="M11.7179 6.18999C11.6731 6.1694 11.6194 6.19374 11.6015 6.24053C11.5818 6.28732 11.6051 6.34348 11.6499 6.3622C11.6946 6.38091 11.7483 6.35845 11.7662 6.31166C11.7842 6.26299 11.7627 6.20871 11.7179 6.18999Z" fill="black"/>
<path d="M12.7241 8.48292L11.7054 8.13102L11.197 8.05615L11.6732 8.25456L12.7241 8.48292Z" fill="black"/>
<path d="M12.1405 6.44451C12.1011 6.41269 12.0456 6.42018 12.0151 6.46136C11.9847 6.50254 11.9919 6.56056 12.0312 6.59238C12.0706 6.6242 12.1261 6.61672 12.1566 6.57554C12.187 6.53436 12.1798 6.47633 12.1405 6.44451Z" fill="black"/>
<path d="M12.5469 8.93402L11.6499 8.3182L11.1772 8.10669L11.5872 8.42864L12.5469 8.93402Z" fill="black"/>
<path d="M12.4878 6.80755C12.4574 6.76637 12.4019 6.75888 12.3625 6.79071C12.3231 6.82253 12.3159 6.88055 12.3464 6.92173C12.3768 6.96291 12.4323 6.9704 12.4717 6.93858C12.5093 6.90676 12.5182 6.84686 12.4878 6.80755Z" fill="black"/>
<path d="M12.2622 9.3196L11.5479 8.48292L11.145 8.15161L11.4619 8.57276L12.2622 9.3196Z" fill="black"/>
<path d="M12.733 7.24932C12.7134 7.20252 12.6614 7.17819 12.6167 7.19878C12.5719 7.21937 12.5486 7.27365 12.5683 7.32045C12.588 7.36724 12.6399 7.3897 12.6847 7.37098C12.7295 7.35227 12.751 7.29799 12.733 7.24932Z" fill="black"/>
<path d="M11.8934 9.61722L11.41 8.61394L11.1021 8.1853L11.3044 8.67945L11.8934 9.61722Z" fill="black"/>
<path d="M12.8584 7.74367C12.8512 7.69313 12.8065 7.65757 12.7581 7.66318C12.7098 7.67067 12.6758 7.71746 12.6812 7.768C12.6883 7.81854 12.7331 7.8541 12.7814 7.84849C12.8316 7.84287 12.8656 7.79608 12.8584 7.74367Z" fill="black"/>
<path d="M11.4619 9.80244L11.2435 8.70558L11.0519 8.20581L11.1253 8.7374L11.4619 9.80244Z" fill="black"/>
</svg>
