<svg width="24" height="24" viewBox="0 0 24 24" fill="none" xmlns="http://www.w3.org/2000/svg">
<g clip-path="url(#clip0_6306_1453)">
<path d="M9.01503 21.6C9.74572 21.6 10.3381 20.986 10.3381 20.2286C10.3381 19.4712 9.74572 18.8572 9.01503 18.8572C8.28435 18.8572 7.69202 19.4712 7.69202 20.2286C7.69202 20.986 8.28435 21.6 9.01503 21.6Z" fill="black"/>
<path d="M18.276 21.6C19.0067 21.6 19.599 20.986 19.599 20.2286C19.599 19.4712 19.0067 18.8572 18.276 18.8572C17.5453 18.8572 16.953 19.4712 16.953 20.2286C16.953 20.986 17.5453 21.6 18.276 21.6Z" fill="black"/>
<path d="M20.9223 5.82858H6.25L5.70757 2.94861C5.67664 2.79139 5.59351 2.6504 5.47264 2.55016C5.35177 2.44993 5.20082 2.39681 5.04606 2.40004H2.40002V3.77146H4.50362L7.03058 16.9371C7.06151 17.0943 7.14464 17.2353 7.26551 17.3355C7.38638 17.4357 7.53734 17.4889 7.69209 17.4856H19.5992V16.1142H8.23453L7.69209 13.3714H19.5992C19.7522 13.3752 19.9016 13.3241 20.0223 13.2266C20.1429 13.129 20.2271 12.9912 20.2608 12.8365L21.5838 6.66515C21.6059 6.56341 21.6054 6.45776 21.5823 6.35626C21.5591 6.25475 21.5139 6.16006 21.4501 6.0794C21.3863 5.99873 21.3056 5.93421 21.2142 5.89074C21.1227 5.84728 21.0229 5.82602 20.9223 5.82858Z" fill="black"/>
</g>
<defs>
<clipPath id="clip0_6306_1453">
<rect width="24" height="24" fill="white"/>
</clipPath>
</defs>
</svg>
